<?xml version="1.0" encoding="utf-8"?>
<!DOCTYPE svg PUBLIC "-//W3C//DTD SVG 1.1//EN" "http://www.w3.org/Graphics/SVG/1.1/DTD/svg11.dtd">
<svg version="1.1" xmlns="http://www.w3.org/2000/svg" xmlns:xlink="http://www.w3.org/1999/xlink" xmlns:xml="http://www.w3.org/XML/1998/namespace" width="600" height="600">
  <circle cx="500px" cy="300px" r="20px" stroke-width="2" style="fill:red;stroke:black;" />
  <text x="500px" y="300px" text-anchor="middle" font-size="14">1</text>
  <circle cx="400px" cy="473.2051px" r="20px" stroke-width="2" style="fill:red;stroke:black;" />
  <text x="400px" y="473.2051px" text-anchor="middle" font-size="14">2</text>
  <circle cx="200px" cy="473.2051px" r="20px" stroke-width="2" style="fill:red;stroke:black;" />
  <text x="200px" y="473.2051px" text-anchor="middle" font-size="14">3</text>
  <circle cx="100px" cy="300px" r="20px" stroke-width="2" style="fill:red;stroke:black;" />
  <text x="100px" y="300px" text-anchor="middle" font-size="14">4</text>
  <circle cx="200px" cy="126.7949px" r="20px" stroke-width="2" style="fill:red;stroke:black;" />
  <text x="200px" y="126.7949px" text-anchor="middle" font-size="14">5</text>
  <circle cx="400px" cy="126.7949px" r="20px" stroke-width="2" style="fill:red;stroke:black;" />
  <text x="400px" y="126.7949px" text-anchor="middle" font-size="14">6</text>
  <line x1="500px" y1="300px" x2="400px" y2="473.2051px" stroke-width="2" style="stroke:blue;" />
  <line x1="500px" y1="300px" x2="200px" y2="473.2051px" stroke-width="2" style="stroke:blue;" />
  <line x1="500px" y1="300px" x2="100px" y2="300px" stroke-width="2" style="stroke:blue;" />
  <line x1="400px" y1="473.2051px" x2="200px" y2="473.2051px" stroke-width="2" style="stroke:blue;" />
  <line x1="400px" y1="473.2051px" x2="200px" y2="126.7949px" stroke-width="2" style="stroke:blue;" />
  <line x1="200px" y1="473.2051px" x2="100px" y2="300px" stroke-width="2" style="stroke:blue;" />
  <line x1="200px" y1="126.7949px" x2="200px" y2="473.2051px" stroke-width="2" style="stroke:blue;" />
  <line x1="200px" y1="473.2051px" x2="400px" y2="126.7949px" stroke-width="2" style="stroke:blue;" />
  <line x1="100px" y1="300px" x2="400px" y2="126.7949px" stroke-width="2" style="stroke:blue;" />
  <line x1="200px" y1="126.7949px" x2="400px" y2="126.7949px" stroke-width="2" style="stroke:blue;" />
  <line x1="500px" y1="300px" x2="400px" y2="473.2051px" stroke-width="3" style="stroke:red;" />
  <line x1="500px" y1="300px" x2="200px" y2="473.2051px" stroke-width="3" style="stroke:red;" />
  <line x1="500px" y1="300px" x2="100px" y2="300px" stroke-width="3" style="stroke:red;" />
</svg>